<?xml version="1.0" encoding="utf-8"?>
<!-- Generator: Adobe Illustrator 16.0.0, SVG Export Plug-In . SVG Version: 6.00 Build 0)  -->
<!DOCTYPE svg PUBLIC "-//W3C//DTD SVG 1.1//EN" "http://www.w3.org/Graphics/SVG/1.1/DTD/svg11.dtd">
<svg version="1.1" id="Layer_1" xmlns="http://www.w3.org/2000/svg" xmlns:xlink="http://www.w3.org/1999/xlink" x="0px" y="0px"
	 width="96px" height="96px" viewBox="0 0 96 96" enable-background="new 0 0 96 96" xml:space="preserve">
<g>
	<g id="XMLID_1_">
		<g>
			<path fill="#AFB2AA" d="M88.25,51.56c-2.5,0.631-3.04,3.181-2.85,5.391c0.02,0.21,0.04,0.43,0.08,0.64
				c0.189,1.2,0.63,2.32,1.279,3.32c1.181,1.82,2.98,3.359,5.23,3.32c1.109-0.021,2.54-0.211,3.479-0.711
				C95.79,63.34,96,63.16,96,63.21c-0.02,0.26-1.49,1.43-1.75,1.68c-1.21,0.771-2.58,1.03-4.5,1.03c-4.2,0-7.29-3.8-7.29-8.08
				c0-3.17,1.95-6.01,4.63-7.13c3.41-1.42,7.4,0.22,8.46,3.25c0.19,0.53,0.15,0.56-0.35,0.771c-2.45,1.02-5.181,1.97-7.62,2.979
				l-2.061-0.13l6.021-2.51c0.67-0.28,0.84-0.66,0.57-1.391C91.49,52.08,89.92,51.15,88.25,51.56z"/>
			<path fill="#AFB2AA" d="M79.64,62.84c0.03,1.641,0.67,1.45,2.801,1.38c-0.32,0.28-0.841,0.82-1.25,1.05
				c-1.921,0-3.75-0.05-5.66-0.05c0.72-0.739,1.09-1.22,1.04-3.09c0.04-6.27-0.21-12.29,0.17-18.32c-0.9,0.02-1.721,0.01-2.61,0.03
				c0.84-0.43,1.65-1.05,2.54-1.44c1.53,0,2.97,0,4.49,0c-0.62,0.4-0.83,0.57-1.101,1c-0.189,0.3-0.239,0.88-0.279,1.4
				C79.52,50.8,79.68,56.84,79.64,62.84z"/>
			<path fill="#AFB2AA" d="M70.16,56.38c-0.521-3.17-2.811-5.11-4.95-4.439c-1.81,0.56-2.59,2.43-1.84,5.359
				c0.68,2.681,2.81,4.17,4.729,3.641C69.98,60.42,70.5,58.46,70.16,56.38z M68.55,66.29c-0.609-0.021-1.229-0.07-1.83-0.05
				c-2.2,0.069-4.85,1.109-5.22,3.1c-0.72,3.76,3.12,4.891,5.97,4.71c2.681-0.16,4.24-1.439,4.42-3.069
				c0.15-1.351-0.449-2.811-2.33-4C69.21,66.76,68.87,66.53,68.55,66.29z M58.43,70.93c-0.18-3.47,3.38-5.12,6.59-5.5
				c0.9-0.1,1.711-0.09,2.461-0.029c-1.131-0.75-1.561-2.28-0.98-3.301c0.15-0.26,0.06-0.17-0.23-0.13
				c-2.63,0.4-5.34-1.319-5.97-3.91c-0.319-1.319-0.12-2.689,0.38-3.77c1.09-2.34,3.511-3.64,6.2-3.64c2.79,0,5.38,0,8.12,0.02
				l-1.92,1.25h-2.19c0.92,0.64,1.63,1.57,2.021,2.61c0.42,1.1,0.47,2.319,0.05,3.45c-0.4,1.06-1.2,1.979-2.39,2.67
				c-0.67,0.399-1.021,0.899-1.051,1.38c-0.109,1.399,1.601,2.42,2.591,3.16c2.17,1.619,3.01,4.279,1.58,6.85
				c-1.37,2.45-4.631,3.55-8.101,3.56C61.29,75.58,58.58,73.61,58.43,70.93z"/>
			<path fill="#AFB2AA" d="M58.65,57.68c0.239,4-3.061,7.58-7.101,8.011c-4.85,0.52-9.09-2.83-9.09-7.71c0-4.261,3.64-7.74,8.1-7.74
				C55.72,50.24,58.41,53.67,58.65,57.68z M52.1,64.48c2.65-0.61,3.631-3.341,3.341-6.28c-0.46-4.49-3.54-7.55-6.561-6.74
				c-2.55,0.67-3.84,3.42-3.06,7.6C46.54,62.87,49.4,65.11,52.1,64.48z"/>
			<path fill="#AFB2AA" d="M41.07,57.68c0.24,4-3.09,7.58-7.18,8.011c-4.91,0.52-9.2-2.83-9.2-7.71c0-4.261,3.69-7.74,8.2-7.74
				C38.11,50.24,40.83,53.67,41.07,57.68z M34.45,64.48c2.67-0.61,3.67-3.341,3.37-6.28c-0.46-4.49-3.57-7.55-6.63-6.74
				c-2.58,0.67-3.89,3.42-3.1,7.6C28.82,62.87,31.71,65.11,34.45,64.48z"/>
			<path fill="#AFB2AA" d="M22.27,45.7l-2.34,2.39l-1.52,0.43l0.81-1.47c-1.16-1.16-2.5-2.01-3.96-2.48
				c-2.34-0.74-4.5-0.33-6.3,0.55c-3.69,1.8-5.86,6.17-5.02,10.79c0.89,4.88,4.66,8.78,9.6,9.189C15,65.22,16.59,65.15,18,64.78
				c1.01-0.32,1-0.42,1-1.03c0-1.39,0-2.91,0-4.29l-4.95,0.15l2.55-1.44h6.88l-1.1,1.29v4.87v0.439
				C17.66,67.15,9.82,67.83,5.3,64.78c-2.74-1.84-5.44-5.521-5.29-10.16c0.14-4.42,3-8.37,6.93-10.36
				C11.46,41.98,18.29,42.41,22.27,45.7z"/>
		</g>
		<g>
		</g>
	</g>
</g>
</svg>
