<?xml version="1.0" encoding="utf-8"?>
<!-- Generator: Adobe Illustrator 16.0.0, SVG Export Plug-In . SVG Version: 6.00 Build 0)  -->
<!DOCTYPE svg PUBLIC "-//W3C//DTD SVG 1.1//EN" "http://www.w3.org/Graphics/SVG/1.1/DTD/svg11.dtd">
<svg version="1.1" id="Layer_1" xmlns="http://www.w3.org/2000/svg" xmlns:xlink="http://www.w3.org/1999/xlink" x="0px" y="0px"
	 width="96px" height="96px" viewBox="0 0 96 96" enable-background="new 0 0 96 96" xml:space="preserve">
<g>
	<path fill="#AFB2AA" d="M87.5,8.5H7.529v37.278l3.036-7.146h3.962l2.341,5.513v-5.513h5.614l1.894,4.798l1.994-4.798h5.586v0.002
		h8.521v-0.002h6.398l0.557,0.007l0.53,0.025l0.496,0.042l0.469,0.061l0.438,0.082l0.416,0.106l0.396,0.135l0.355,0.167l0.227,0.133
		l0.2,0.137l0.188,0.141l0.131,0.113v-1.148h4.539v1.461l0.068-0.074l0.24-0.224l0.257-0.201l0.272-0.185l0.283-0.159l0.297-0.139
		l0.31-0.121l0.315-0.1l0.332-0.083l0.338-0.065l0.352-0.05l0.358-0.034l0.372-0.02l0.373-0.007h4.197h0.211h3.752l2.658,6.266
		v-6.266h4.563l1.571,2.871v-2.871h4.453v11.511h-4.451l-1.684-2.947v2.947h-2.223h-2.232H67.93l-0.883-2.064h-1.77l-0.887,2.064
		h-4.492h-0.236l-0.229-0.006l-0.221-0.008l-0.204-0.014l-0.194-0.012l-0.191-0.02l-0.18-0.025l-0.196-0.031L57.729,49.9
		l-0.517-0.184l-0.487-0.248l-0.449-0.303l-0.409-0.355l-0.054-0.062v1.392h-2.61h-1.929h-3.383l-0.338-1.012l-0.045-0.169
		l-0.042-0.175l-0.032-0.184L47.4,48.41l-0.031-0.213l-0.032-0.226l-0.026-0.226l-0.021-0.161l-0.024-0.135l-0.024-0.119
		l-0.024-0.098l-0.021-0.078l-0.025-0.062l-0.02-0.041l-0.01-0.022l-0.007-0.011l-0.01-0.015l-0.011-0.016L47.1,46.979l-0.02-0.018
		l-0.029-0.017l-0.039-0.026l-0.025-0.016l-0.055-0.018l-0.086-0.023l-0.113-0.03l-0.137-0.026l-0.167-0.021l-0.194-0.018
		l-0.211-0.009l-0.249-0.002H45.29v3.388h-3.21h-1.603h-8.521h-0.248h-4.585v-1.693l-0.729,1.693h-4.142l-0.551-1.354v1.354h-2.285
		h-2.549h-2.555l-0.88-2.063h-1.771l-0.887,2.063H7.529v38.326H87.5V65.125l-0.074,0.076l-0.3,0.244l-0.329,0.205l-0.352,0.168
		l-0.365,0.125l-0.355,0.082l-0.199,0.027l-0.188,0.02l-0.197,0.021l-0.201,0.012l-0.215,0.014l-0.227,0.006l-0.243,0.006
		l-0.251,0.002H78.37v-0.77l-0.099,0.082l-0.33,0.205l-0.351,0.168l-0.364,0.125l-0.358,0.082l-0.198,0.027l-0.188,0.02
		l-0.196,0.021l-0.202,0.012l-0.215,0.014l-0.229,0.006l-0.24,0.006l-0.252,0.002h-4.539h-1.096h-7.277h-2h-3.014l-0.312-1.049
		l-0.042-0.162l-0.036-0.174l-0.029-0.18l-0.027-0.189l-0.03-0.213l-0.028-0.223l-0.021-0.227l-0.022-0.164l-0.021-0.139
		l-0.022-0.121l-0.022-0.105l-0.022-0.084l-0.021-0.068l-0.021-0.045l-0.01-0.021l-0.009-0.01l-0.01-0.02l-0.012-0.012l-0.006-0.01
		l-0.009-0.01l-0.021-0.014l-0.029-0.018l-0.012-0.01l-0.031-0.014l-0.062-0.02l-0.084-0.025l-0.107-0.023l-0.142-0.02l-0.157-0.016
		l-0.181-0.012l-0.22-0.002h-0.295v3.393h-4.584v-4.453l-0.114,0.127l-0.173,0.164l-0.176,0.146l-0.162,0.127l-0.164,0.111
		l-0.172,0.105l-0.174,0.096l-0.18,0.082l-0.184,0.076l-0.189,0.068l-0.188,0.057l-0.192,0.047L48.3,62.92l-0.206,0.029
		l-0.205,0.023l-0.214,0.018l-0.223,0.014l-0.231,0.008h-0.229h-2.104v3.117H38.87L37.135,63.9l-1.697,2.229H23.836V54.621h5.752
		h-0.001h6.066l1.512,2.078l1.641-2.078h7.633l0.343,0.004l0.329,0.008l0.309,0.016l0.288,0.02l0.274,0.027l0.261,0.037l0.247,0.045
		l0.258,0.066l0.354,0.123l0.336,0.154l0.316,0.188l0.301,0.211l0.275,0.246l0.234,0.242v-1.387h5.871l0.506,0.008l0.488,0.025
		l0.453,0.041l0.436,0.062l0.41,0.084l0.391,0.109l0.376,0.145l0.333,0.178l0.215,0.141l0.189,0.139l0.006,0.006v-0.938h10.197
		v0.852l0.238-0.188l0.33-0.197l0.346-0.156l0.354-0.121l0.366-0.086l0.373-0.057l0.15-0.014l0.137-0.01l0.145-0.006l0.16-0.01
		l0.158-0.002l0.17-0.004l0.185-0.004h0.193h5.579v0.828l0.209-0.164l0.33-0.195l0.346-0.156l0.354-0.121l0.371-0.088l0.367-0.057
		l0.152-0.014l0.134-0.008l0.146-0.008l0.156-0.008l0.163-0.002l0.169-0.004l0.186-0.004h0.193H87.5V8.5L87.5,8.5z M70.609,61.951
		l0.453-0.006l-0.33-0.184l-0.293-0.213l-0.176-0.164l-0.148-0.148l-0.139-0.162L69.85,60.91l-0.113-0.168v1.072h0.873V61.951
		L70.609,61.951z M79.796,61.879l0.006,0.068l0.114-0.002L79.796,61.879L79.796,61.879z M33.334,61.207l0.726-0.885l-0.726-0.902
		V61.207L33.334,61.207z M62.408,42.811h-2.164l-0.247,0.011l-0.192,0.02l-0.156,0.033l-0.123,0.036l-0.094,0.039l-0.072,0.039
		l-0.051,0.039l-0.029,0.033l-0.006,0.004l-0.022,0.037l-0.032,0.073l-0.033,0.122l-0.033,0.171l-0.028,0.218l-0.019,0.258
		l-0.008,0.289l0.008,0.403l0.033,0.343l0.043,0.286l0.055,0.227l0.062,0.158l0.049,0.098l0.033,0.045l0.025,0.026l0.035,0.018
		l0.067,0.026l0.099,0.03l0.125,0.025l0.16,0.022l0.186,0.015l0.232,0.005h0.763L62.408,42.811L62.408,42.811z"/>
	<path fill="#AFB2AA" d="M25.085,44.883h2.073l-1.698,3.948h-2.423l-2.728-6.717v6.717h-2.244v-8.943h3.441l2.754,6.977
		L25.085,44.883L25.085,44.883z M28.35,44.883h2.246v3.948H28.35V44.883L28.35,44.883z M32.946,44.883h6.924v0.185h-4.81v2.038
		h5.686v1.726h-7.8V44.883L32.946,44.883z M41.745,44.883h7.729c-0.1,0.037-0.203,0.072-0.312,0.103
		c0.411,0.117,0.719,0.247,0.927,0.389c0.211,0.137,0.399,0.343,0.568,0.613c0.127,0.209,0.218,0.415,0.272,0.612
		c0.055,0.2,0.096,0.495,0.135,0.884c0.06,0.64,0.146,1.088,0.254,1.348H48.82c-0.079-0.213-0.154-0.633-0.232-1.271
		c-0.062-0.522-0.172-0.925-0.334-1.203c-0.158-0.277-0.404-0.494-0.73-0.65c-0.403-0.188-0.992-0.278-1.762-0.276h-1.794v3.401
		h-2.222V44.883L41.745,44.883z M52.578,44.883h1.949v3.948h-1.949V44.883L52.578,44.883z M55.673,44.883h2.169
		c0.078,0.942,0.332,1.585,0.762,1.923c0.365,0.289,0.938,0.432,1.713,0.432h1.641l1.003-2.354h2.062l-0.119,0.284h2.615
		l-0.119-0.284h2.06l1.678,3.948H68.84l-0.883-2.073h-3.492l-0.89,2.073h-0.441h-1.853H59.93c-0.609,0-1.074-0.031-1.396-0.094
		c-1.126-0.213-1.928-0.828-2.401-1.838C55.868,46.336,55.716,45.665,55.673,44.883L55.673,44.883z M72.166,44.883h1.863v3.948
		h-1.863V44.883L72.166,44.883z M75.52,44.883h1.887l0.912,1.667v-1.667h1.863v3.948h-2.41L75.52,44.883L75.52,44.883z
		 M80.182,44.883h-1.863v-4.995h1.863V44.883L80.182,44.883z M77.404,44.883H75.52l-1.49-2.612v2.612h-1.862v-4.995h2.501
		L77.404,44.883L77.404,44.883z M69.456,44.883h-2.06l-1.187-2.847l-1.19,2.847h-2.062l2.123-4.995h2.252L69.456,44.883
		L69.456,44.883z M57.842,44.883h-2.169c-0.011-0.162-0.015-0.327-0.015-0.499c0-1.204,0.242-2.186,0.721-2.938
		c0.344-0.542,0.807-0.938,1.389-1.187c0.578-0.248,1.332-0.371,2.256-0.371h3.108v1.593h-2.887c-0.873,0-1.517,0.228-1.925,0.682
		c-0.336,0.375-0.506,1.055-0.506,2.044C57.814,44.445,57.823,44.673,57.842,44.883L57.842,44.883z M54.527,44.883h-1.949v-4.995
		h1.949V44.883L54.527,44.883z M49.477,44.883h-7.73v-4.995h5.104c1.467,0,2.49,0.156,3.071,0.475
		c0.396,0.218,0.699,0.497,0.917,0.852c0.215,0.352,0.325,0.739,0.325,1.163c0,0.851-0.253,1.506-0.759,1.966
		C50.159,44.565,49.85,44.745,49.477,44.883L49.477,44.883z M39.87,44.883h-6.924V39.89h7.627v1.671H35.06v1.808h4.81V44.883
		L39.87,44.883z M30.596,44.883H28.35v-2.769l-1.191,2.769h-2.073l2.073-4.995h3.438L30.596,44.883L30.596,44.883z M70.869,64.867
		v-1.594h3.947c0.636,0,1.057-0.064,1.268-0.197c0.309-0.188,0.459-0.469,0.459-0.844c0-0.432-0.18-0.75-0.533-0.951
		c-0.201-0.113-0.527-0.172-0.972-0.172h-1.601c-0.979,0-1.688-0.182-2.119-0.549c-0.271-0.232-0.479-0.521-0.633-0.875
		c-0.151-0.352-0.228-0.729-0.228-1.123c0-0.629,0.177-1.205,0.53-1.723c0.348-0.5,0.902-0.795,1.666-0.877
		c0.258-0.027,0.643-0.039,1.152-0.039H78.1v1.59h-3.873c-0.578,0.004-0.965,0.033-1.151,0.08c-0.39,0.1-0.587,0.404-0.587,0.91
		c0.002,0.428,0.164,0.715,0.49,0.865c0.221,0.1,0.582,0.148,1.092,0.148h1.386c0.711,0,1.241,0.062,1.591,0.189
		c0.611,0.215,1.035,0.59,1.264,1.129c0.186,0.43,0.278,0.893,0.278,1.389c0.001,0.539-0.123,1.027-0.364,1.463
		c-0.334,0.609-0.846,0.975-1.522,1.094c-0.332,0.055-0.826,0.084-1.485,0.084h-4.348V64.867z M61.562,55.924h7.627v1.674h-5.513
		v1.807h4.81v1.697h-4.81v2.039h5.687v1.727h-7.801V55.924L61.562,55.924z M25.052,55.924h7.068h-0.001h2.819l2.138,2.939
		l2.319-2.939h2.054h0.741h4.226c0.904,0,1.553,0.057,1.945,0.168c0.652,0.197,1.168,0.605,1.547,1.225
		c0.279,0.461,0.423,0.965,0.423,1.516c0,0.455-0.095,0.885-0.274,1.291c-0.188,0.404-0.443,0.74-0.775,1.002
		c-0.289,0.232-0.605,0.395-0.94,0.482s-0.791,0.137-1.37,0.137h-3.405v3.123H42.19h-0.741h-1.983l-2.39-3.066l-2.333,3.066h-1.89
		h-0.869h-6.933L25.052,55.924L25.052,55.924z M32.679,56.615v0.982h-5.513v1.807h4.81v1.697h-4.81v2.039h5.688l0.523,0.021
		l2.304-2.816L32.679,56.615L32.679,56.615z M79.752,64.867v-1.594h3.946c0.635,0,1.058-0.064,1.269-0.197
		c0.307-0.188,0.456-0.469,0.456-0.844c0.001-0.432-0.178-0.75-0.53-0.951c-0.203-0.113-0.529-0.172-0.973-0.172h-1.604
		c-0.979,0-1.684-0.182-2.115-0.549c-0.27-0.232-0.48-0.521-0.635-0.875c-0.149-0.352-0.229-0.729-0.229-1.123
		c0-0.629,0.178-1.205,0.532-1.723c0.347-0.5,0.901-0.795,1.666-0.877c0.257-0.027,0.644-0.039,1.153-0.039h4.291v1.59h-3.873
		c-0.58,0.004-0.963,0.033-1.152,0.08c-0.391,0.1-0.586,0.404-0.586,0.91c0,0.428,0.163,0.715,0.49,0.865
		c0.22,0.1,0.584,0.148,1.092,0.148h1.386c0.71,0,1.24,0.062,1.59,0.189c0.614,0.215,1.035,0.59,1.263,1.129
		c0.185,0.43,0.279,0.893,0.279,1.389c0,0.539-0.121,1.027-0.363,1.463c-0.336,0.609-0.847,0.975-1.523,1.094
		c-0.331,0.055-0.826,0.084-1.482,0.084h-4.348V64.867z M53.854,59.873h2.804c0.469,0,0.8-0.064,0.995-0.195
		c0.3-0.199,0.449-0.547,0.449-1.035c0-0.547-0.229-0.895-0.674-1.047c-0.158-0.053-0.414-0.08-0.771-0.08h-2.804V59.873
		L53.854,59.873z M53.854,61.469v3.396h-1.996v-8.941h4.582c1.312,0,2.231,0.158,2.752,0.477c0.355,0.215,0.625,0.498,0.82,0.85
		c0.193,0.354,0.295,0.736,0.295,1.164c0,0.85-0.228,1.508-0.682,1.965c-0.279,0.281-0.648,0.492-1.113,0.643
		c0.37,0.117,0.646,0.246,0.832,0.389c0.189,0.141,0.356,0.344,0.51,0.613c0.112,0.211,0.194,0.416,0.246,0.613
		c0.047,0.199,0.086,0.492,0.117,0.881c0.053,0.643,0.133,1.092,0.229,1.35h-2.24c-0.07-0.211-0.139-0.633-0.207-1.27
		c-0.057-0.525-0.155-0.93-0.3-1.205c-0.144-0.277-0.364-0.494-0.657-0.648c-0.361-0.189-0.889-0.281-1.581-0.273h-1.606V61.469z
		 M41.449,56.812l-2.942,3.533l2.942,3.611V56.812L41.449,56.812z M43.564,60.148h2.887c0.515,0,0.879-0.074,1.088-0.223
		c0.312-0.223,0.466-0.609,0.466-1.16c0-0.604-0.235-0.988-0.709-1.16c-0.167-0.059-0.438-0.092-0.801-0.092h-2.931V60.148
		L43.564,60.148z M12.431,42.037l-1.311,3.131h2.613L12.431,42.037L12.431,42.037z M7.5,48.832l3.801-8.943h2.253l3.8,8.943H15.06
		l-0.884-2.073h-3.494l-0.888,2.073H7.5L7.5,48.832z M43.967,43.839h3.126c0.524,0,0.894-0.064,1.112-0.197
		c0.332-0.201,0.499-0.547,0.499-1.035c0.001-0.547-0.25-0.896-0.751-1.05c-0.178-0.05-0.46-0.076-0.86-0.076h-3.126V43.839
		L43.967,43.839z"/>
</g>
</svg>
