<?xml version="1.0" encoding="utf-8"?>
<!-- Generator: Adobe Illustrator 16.0.0, SVG Export Plug-In . SVG Version: 6.00 Build 0)  -->
<!DOCTYPE svg PUBLIC "-//W3C//DTD SVG 1.1//EN" "http://www.w3.org/Graphics/SVG/1.1/DTD/svg11.dtd">
<svg version="1.1" id="Layer_1" xmlns="http://www.w3.org/2000/svg" xmlns:xlink="http://www.w3.org/1999/xlink" x="0px" y="0px"
	 width="96px" height="96px" viewBox="0 0 96 96" enable-background="new 0 0 96 96" xml:space="preserve">
<g>
	<g>
		<path fill="#AFB2AA" d="M0.073,73.727l2.092-0.186l0.403-0.482V52.707H0v-1.779l6.787-2.188h1.907v2.484
			c3.376-2.002,4.696-2.521,6.42-2.521c4.036,0,7.117,3.855,7.117,8.934c0,5.932-4.219,9.898-10.455,9.898
			c-0.733,0-1.907-0.074-3.082-0.186v5.709l0.477,0.479l2.422,0.188l-0.073,1.965H0.073V73.727z M8.694,65.236
			c0.477,0.074,0.697,0.074,0.991,0.074c3.778,0,5.796-2.371,5.796-6.82c0-3.779-1.65-5.783-4.695-5.783
			c-0.514,0-1.027,0.037-2.092,0.188V65.236z"/>
		<path fill="#AFB2AA" d="M30.46,48.814c0.294,1.334,0.44,2.336,0.478,3.149l0.402,9.047l5.356-10.231v-1.074l5.54-0.443
			l0.697,14.084l4.732-6.635l-1.027-6.82c0.991-0.891,1.688-1.188,2.825-1.188c1.797,0,3.008,1.15,3.008,2.893
			c0,1.816-0.99,3.967-3.447,7.414c-0.771,1.074-3.045,3.93-6.787,8.525h-4.33l-0.844-12.752l-6.86,12.752h-4.658l0.367-1.668
			l-0.587-13.42l-3.632-0.594v-1.482l6.64-1.557H30.46L30.46,48.814z"/>
		<path fill="#AFB2AA" d="M63.9,50.705c-3.117,0.482-4.731,2.818-4.731,6.857c0,4.078,2.165,6.785,5.394,6.785
			c1.541,0,2.936-0.482,5.797-1.894v3.301c-3.484,1.595-5.504,2.074-8.327,2.074c-3.046,0-5.173-0.813-6.935-2.597
			c-1.762-1.778-2.679-4.112-2.679-6.746c0-5.817,4.329-9.786,10.677-9.786c4.219,0,7.115,1.93,7.115,4.709
			c0,1.854-1.355,3.075-3.374,3.075c-1.026,0-1.871-0.26-2.937-0.889V50.705z"/>
	</g>
	<rect x="42.641" y="33.491" fill="none" stroke="#AFB2AA" stroke-miterlimit="10" width="17.603" height="4.783"/>
	<g>
		<rect x="60.244" y="0.5" fill="none" stroke="#AFB2AA" stroke-miterlimit="10" width="17.219" height="5.289"/>
		<rect x="60.244" y="5.789" fill="none" stroke="#AFB2AA" stroke-miterlimit="10" width="17.219" height="5.557"/>
		<rect x="80.654" y="11.346" fill="none" stroke="#AFB2AA" stroke-miterlimit="10" width="8.705" height="13.475"/>
		<rect x="77.463" y="11.346" fill="none" stroke="#AFB2AA" stroke-miterlimit="10" width="3.191" height="13.474"/>
		<polygon fill="none" stroke="#AFB2AA" stroke-miterlimit="10" points="70.884,24.82 77.463,24.82 77.463,11.346 60.244,11.346 
			60.244,20.336 70.884,20.336 		"/>
		<rect x="89.359" y="24.821" fill="none" stroke="#AFB2AA" stroke-miterlimit="10" width="6.141" height="8.67"/>
		<rect x="80.654" y="24.821" fill="none" stroke="#AFB2AA" stroke-miterlimit="10" width="8.705" height="8.67"/>
		<rect x="77.463" y="24.821" fill="none" stroke="#AFB2AA" stroke-miterlimit="10" width="3.191" height="8.67"/>
		<rect x="70.884" y="24.821" fill="none" stroke="#AFB2AA" stroke-miterlimit="10" width="6.579" height="8.67"/>
		<rect x="60.244" y="20.336" fill="none" stroke="#AFB2AA" stroke-miterlimit="10" width="10.64" height="4.484"/>
		<rect x="60.244" y="24.821" fill="none" stroke="#AFB2AA" stroke-miterlimit="10" width="10.64" height="8.67"/>
		<rect x="77.463" y="5.789" fill="none" stroke="#AFB2AA" stroke-miterlimit="10" width="3.191" height="5.557"/>
	</g>
</g>
</svg>
