<?xml version="1.0" encoding="utf-8"?>
<!-- Generator: Adobe Illustrator 16.0.0, SVG Export Plug-In . SVG Version: 6.00 Build 0)  -->
<!DOCTYPE svg PUBLIC "-//W3C//DTD SVG 1.1//EN" "http://www.w3.org/Graphics/SVG/1.1/DTD/svg11.dtd">
<svg version="1.1" id="Layer_1" xmlns="http://www.w3.org/2000/svg" xmlns:xlink="http://www.w3.org/1999/xlink" x="0px" y="0px"
	 width="96px" height="96px" viewBox="0 0 96 96" enable-background="new 0 0 96 96" xml:space="preserve">
<g>
	<path fill-rule="evenodd" clip-rule="evenodd" fill="#C3C6C8" d="M88,8.016H8.029v37.278l3.036-7.146h3.962l2.341,5.513v-5.513
		h5.614l1.894,4.798l1.994-4.798h5.586v0.002h8.521v-0.002h6.398l0.556,0.007l0.531,0.025l0.496,0.042l0.469,0.061l0.438,0.082
		l0.416,0.106l0.396,0.135l0.355,0.167l0.227,0.133l0.2,0.137l0.188,0.141l0.13,0.113v-1.148h4.539v1.461l0.069-0.074l0.24-0.224
		l0.257-0.201l0.273-0.185l0.283-0.159l0.296-0.139l0.31-0.121l0.316-0.1l0.331-0.083l0.339-0.065l0.351-0.05l0.358-0.034
		l0.372-0.02l0.373-0.007h4.197h0.211h3.753l2.657,6.266v-6.266h4.564l1.572,2.871v-2.871h4.453v11.511h-4.451l-1.684-2.947v2.947
		h-2.223h-2.232h-2.872l-0.882-2.064h-1.769l-0.888,2.064h-4.491h-0.237l-0.229-0.007l-0.22-0.007l-0.204-0.013l-0.195-0.013
		l-0.191-0.02l-0.18-0.024l-0.196-0.032l-0.518-0.126l-0.517-0.185l-0.488-0.247l-0.449-0.304l-0.409-0.354l-0.053-0.062v1.392
		h-2.611h-1.928h-3.384l-0.338-1.012l-0.044-0.169l-0.042-0.174l-0.032-0.185l-0.033-0.19l-0.032-0.213l-0.032-0.226l-0.026-0.226
		l-0.021-0.161l-0.024-0.135l-0.025-0.119l-0.024-0.098l-0.022-0.078l-0.025-0.062l-0.019-0.041l-0.01-0.022l-0.007-0.011
		l-0.01-0.015l-0.011-0.016l-0.013-0.009l-0.02-0.018l-0.029-0.017l-0.039-0.026l-0.026-0.016L47.432,46.4l-0.086-0.023l-0.114-0.03
		l-0.137-0.026l-0.167-0.021l-0.194-0.018l-0.211-0.009l-0.249-0.002H45.79v3.388h-3.21h-1.603h-8.521h-0.248h-4.585v-1.693
		l-0.729,1.693h-4.142l-0.551-1.354v1.354h-2.285h-2.549h-2.555l-0.88-2.064h-1.771l-0.887,2.064H8.029v38.326H88V64.641
		l-0.074,0.076l-0.3,0.245l-0.329,0.204l-0.351,0.169l-0.366,0.124l-0.356,0.082l-0.198,0.028l-0.188,0.02L85.64,65.61l-0.201,0.011
		l-0.215,0.014l-0.226,0.006l-0.243,0.005l-0.251,0.002H78.87v-0.769l-0.099,0.083l-0.33,0.204l-0.35,0.169l-0.365,0.124
		l-0.358,0.082l-0.198,0.028l-0.188,0.02l-0.196,0.021l-0.202,0.011l-0.215,0.014l-0.228,0.006L75.9,65.646l-0.251,0.002h-4.54
		h-1.095h-7.277h-2h-3.014L57.41,64.6l-0.042-0.163l-0.036-0.174l-0.029-0.178l-0.028-0.19l-0.03-0.213l-0.028-0.222l-0.022-0.228
		l-0.022-0.163l-0.021-0.139l-0.022-0.122l-0.023-0.104l-0.022-0.085l-0.021-0.067l-0.02-0.045l-0.01-0.022l-0.008-0.011
		l-0.01-0.018l-0.012-0.013l-0.006-0.009l-0.009-0.009l-0.02-0.015l-0.029-0.018l-0.013-0.009l-0.03-0.013l-0.063-0.021
		l-0.084-0.024l-0.108-0.023l-0.141-0.02l-0.157-0.016l-0.181-0.011l-0.219-0.002h-0.296v3.392h-4.583v-4.453l-0.115,0.126
		l-0.172,0.165l-0.176,0.146l-0.162,0.128l-0.164,0.11l-0.173,0.106l-0.174,0.096l-0.179,0.082l-0.184,0.076l-0.189,0.069
		l-0.188,0.055l-0.192,0.048l-0.197,0.036l-0.206,0.031l-0.205,0.023l-0.214,0.018l-0.223,0.013l-0.231,0.007h-0.229h-2.104v3.118
		H39.37l-1.735-2.229l-1.697,2.229H24.336V54.137h5.752h-0.001h6.066l1.512,2.079l1.641-2.079h7.633l0.343,0.003l0.329,0.009
		l0.309,0.015l0.288,0.02l0.275,0.028l0.26,0.037l0.247,0.045l0.258,0.065l0.353,0.124l0.337,0.154l0.316,0.187l0.3,0.212
		l0.276,0.246l0.234,0.242v-1.387h5.872l0.506,0.007l0.488,0.026l0.453,0.041l0.435,0.062l0.411,0.085l0.39,0.11l0.376,0.144
		l0.333,0.178l0.215,0.14l0.189,0.139l0.006,0.006v-0.938h10.198v0.852l0.238-0.188l0.33-0.197l0.346-0.156l0.354-0.121l0.367-0.087
		l0.373-0.057l0.15-0.013l0.137-0.009l0.144-0.007l0.16-0.009l0.159-0.002l0.169-0.004l0.185-0.003h0.193h5.579v0.827l0.209-0.163
		l0.331-0.197l0.345-0.156l0.353-0.121l0.371-0.087l0.368-0.057l0.152-0.013l0.134-0.009l0.146-0.007l0.156-0.009l0.163-0.002
		l0.169-0.004l0.185-0.003h0.193H88V8.016L88,8.016z M71.109,61.468l0.454-0.007l-0.331-0.184l-0.292-0.213l-0.177-0.163
		l-0.148-0.149l-0.138-0.161l-0.128-0.165l-0.113-0.167v1.072h0.873V61.468L71.109,61.468z M80.296,61.395l0.006,0.069l0.114-0.003
		L80.296,61.395L80.296,61.395z M33.834,60.722l0.726-0.884l-0.726-0.902V60.722L33.834,60.722z M62.908,42.327h-2.164l-0.247,0.011
		l-0.192,0.02l-0.157,0.033l-0.122,0.036l-0.095,0.039l-0.072,0.039l-0.05,0.039l-0.03,0.033l-0.005,0.004l-0.023,0.037
		l-0.032,0.073l-0.034,0.122l-0.033,0.171l-0.028,0.218l-0.019,0.258l-0.008,0.289l0.009,0.403l0.032,0.343l0.044,0.286l0.055,0.227
		l0.062,0.158l0.049,0.098l0.033,0.045l0.025,0.026l0.036,0.018l0.067,0.026l0.099,0.03l0.124,0.025l0.161,0.022l0.185,0.015
		l0.233,0.005h0.762L62.908,42.327L62.908,42.327z"/>
	<path fill-rule="evenodd" clip-rule="evenodd" fill="#C3C6C8" d="M25.585,44.399h2.073l-1.698,3.948h-2.423l-2.728-6.717v6.717
		h-2.244v-8.943h3.441l2.754,6.977L25.585,44.399L25.585,44.399z M28.85,44.399h2.246v3.948H28.85V44.399L28.85,44.399z
		 M33.446,44.399h6.924v0.185h-4.81v2.038h5.686v1.726h-7.8V44.399L33.446,44.399z M42.245,44.399h7.73
		c-0.1,0.037-0.204,0.072-0.313,0.103c0.411,0.117,0.719,0.247,0.927,0.389c0.211,0.137,0.399,0.343,0.568,0.613
		c0.127,0.209,0.218,0.415,0.272,0.612c0.055,0.2,0.097,0.495,0.135,0.884c0.06,0.64,0.146,1.089,0.254,1.348H49.32
		c-0.079-0.213-0.154-0.632-0.232-1.272c-0.062-0.522-0.172-0.924-0.334-1.202c-0.158-0.277-0.405-0.494-0.731-0.65
		c-0.403-0.188-0.992-0.278-1.762-0.276h-1.794v3.401h-2.222V44.399L42.245,44.399z M53.078,44.399h1.949v3.948h-1.949V44.399
		L53.078,44.399z M56.173,44.399h2.169c0.078,0.942,0.332,1.585,0.762,1.923c0.365,0.289,0.938,0.432,1.713,0.432h1.64l1.003-2.354
		h2.062l-0.119,0.284h2.615l-0.12-0.284h2.06l1.678,3.948h-2.296l-0.883-2.073h-3.492l-0.89,2.073h-0.441h-1.853h-1.351
		c-0.609,0-1.074-0.031-1.397-0.094c-1.126-0.213-1.927-0.827-2.401-1.838C56.368,45.852,56.216,45.181,56.173,44.399L56.173,44.399
		z M72.666,44.399h1.863v3.948h-1.863V44.399L72.666,44.399z M76.02,44.399h1.886l0.912,1.667v-1.667h1.864v3.948h-2.41
		L76.02,44.399L76.02,44.399z M80.682,44.399h-1.864v-4.995h1.864V44.399L80.682,44.399z M77.905,44.399H76.02l-1.49-2.612v2.612
		h-1.863v-4.995h2.501L77.905,44.399L77.905,44.399z M69.956,44.399h-2.06l-1.186-2.847l-1.19,2.847h-2.062l2.123-4.995h2.252
		L69.956,44.399L69.956,44.399z M58.342,44.399h-2.169c-0.011-0.162-0.015-0.327-0.015-0.499c0-1.204,0.242-2.186,0.721-2.938
		c0.343-0.542,0.807-0.938,1.389-1.187c0.578-0.248,1.332-0.371,2.255-0.371h3.109v1.593h-2.887c-0.873,0-1.516,0.228-1.924,0.682
		c-0.337,0.375-0.506,1.055-0.506,2.044C58.315,43.961,58.323,44.189,58.342,44.399L58.342,44.399z M55.027,44.399h-1.949v-4.995
		h1.949V44.399L55.027,44.399z M49.976,44.399h-7.73v-4.995h5.104c1.466,0,2.49,0.156,3.071,0.475
		c0.396,0.218,0.699,0.497,0.917,0.852c0.215,0.352,0.325,0.739,0.325,1.163c0,0.851-0.253,1.506-0.758,1.966
		C50.659,44.081,50.35,44.261,49.976,44.399L49.976,44.399z M40.37,44.399h-6.924v-4.993h7.627v1.671h-5.513v1.808h4.81V44.399
		L40.37,44.399z M31.096,44.399H28.85v-2.769l-1.191,2.769h-2.073l2.073-4.995h3.438V44.399L31.096,44.399z M71.369,64.383v-1.594
		h3.948c0.635,0,1.056-0.064,1.267-0.197c0.309-0.187,0.459-0.469,0.459-0.844c0-0.432-0.179-0.749-0.533-0.951
		c-0.202-0.114-0.528-0.171-0.972-0.171h-1.601c-0.979,0-1.687-0.183-2.119-0.549c-0.27-0.232-0.479-0.523-0.633-0.875
		c-0.151-0.352-0.227-0.729-0.227-1.124c0-0.629,0.177-1.204,0.53-1.723c0.348-0.5,0.902-0.795,1.667-0.877
		c0.257-0.026,0.642-0.039,1.152-0.039h4.293v1.591h-3.873c-0.579,0.004-0.965,0.032-1.152,0.08c-0.389,0.1-0.586,0.403-0.586,0.909
		c0.001,0.428,0.163,0.716,0.489,0.866c0.221,0.1,0.582,0.149,1.092,0.149h1.386c0.711,0,1.241,0.062,1.591,0.188
		c0.611,0.215,1.035,0.591,1.263,1.129c0.186,0.43,0.279,0.894,0.279,1.389c0.001,0.54-0.123,1.028-0.364,1.463
		c-0.335,0.609-0.846,0.975-1.523,1.094c-0.332,0.054-0.826,0.085-1.485,0.085H71.369L71.369,64.383z M62.062,55.439h7.627v1.675
		h-5.512v1.806h4.81v1.697h-4.81v2.04h5.687v1.726h-7.802V55.439L62.062,55.439z M25.552,55.439h7.068h-0.001h2.819l2.138,2.94
		l2.319-2.94h2.054h0.741h4.226c0.905,0,1.553,0.057,1.946,0.169c0.652,0.197,1.167,0.605,1.546,1.224
		c0.279,0.461,0.423,0.966,0.423,1.516c0,0.455-0.094,0.885-0.275,1.291c-0.188,0.405-0.443,0.74-0.775,1.002
		c-0.289,0.232-0.605,0.394-0.94,0.482s-0.791,0.137-1.37,0.137h-3.405v3.123H42.69h-0.741h-1.983l-2.39-3.066l-2.333,3.066h-1.89
		h-0.869h-6.933V55.439L25.552,55.439z M33.179,56.132v0.982h-5.513v1.806h4.81v1.697h-4.81v2.04h5.688l0.523,0.021l2.304-2.816
		L33.179,56.132L33.179,56.132z M80.252,64.383v-1.594h3.946c0.635,0,1.058-0.064,1.269-0.197c0.306-0.187,0.456-0.469,0.456-0.844
		c0.001-0.432-0.178-0.749-0.53-0.951c-0.203-0.114-0.529-0.171-0.973-0.171h-1.604c-0.979,0-1.683-0.183-2.115-0.549
		c-0.27-0.232-0.481-0.523-0.634-0.875c-0.15-0.352-0.229-0.729-0.229-1.124c0-0.629,0.177-1.204,0.532-1.723
		c0.347-0.5,0.902-0.795,1.666-0.877c0.257-0.026,0.643-0.039,1.154-0.039h4.291v1.591h-3.873c-0.58,0.004-0.964,0.032-1.153,0.08
		c-0.391,0.1-0.586,0.403-0.586,0.909c0,0.428,0.163,0.716,0.491,0.866c0.219,0.1,0.583,0.149,1.091,0.149h1.386
		c0.71,0,1.24,0.062,1.59,0.188c0.614,0.215,1.035,0.591,1.263,1.129c0.184,0.43,0.279,0.894,0.279,1.389
		c0,0.54-0.122,1.028-0.363,1.463c-0.337,0.609-0.847,0.975-1.524,1.094c-0.331,0.054-0.826,0.085-1.483,0.085H80.252L80.252,64.383
		z M54.354,59.389h2.803c0.469,0,0.8-0.064,0.996-0.195c0.299-0.199,0.449-0.547,0.449-1.035c0-0.547-0.229-0.896-0.674-1.048
		c-0.159-0.052-0.414-0.08-0.771-0.08h-2.803V59.389L54.354,59.389z M54.354,60.984v3.398h-1.996v-8.943h4.581
		c1.313,0,2.232,0.158,2.752,0.478c0.356,0.215,0.626,0.497,0.821,0.849c0.193,0.354,0.294,0.737,0.294,1.163
		c0,0.851-0.227,1.508-0.681,1.966c-0.28,0.282-0.649,0.492-1.113,0.643c0.37,0.117,0.645,0.245,0.832,0.389
		c0.189,0.139,0.356,0.343,0.509,0.613c0.113,0.211,0.195,0.415,0.246,0.612c0.047,0.2,0.086,0.493,0.118,0.881
		c0.053,0.643,0.132,1.092,0.229,1.351h-2.241c-0.07-0.211-0.139-0.634-0.207-1.27c-0.057-0.525-0.155-0.93-0.3-1.205
		c-0.143-0.277-0.364-0.494-0.657-0.648c-0.361-0.191-0.889-0.282-1.581-0.275H54.354L54.354,60.984z M41.949,56.329l-2.942,3.533
		l2.942,3.61V56.329L41.949,56.329z M44.064,59.664h2.887c0.515,0,0.879-0.073,1.088-0.223c0.312-0.222,0.466-0.608,0.466-1.159
		c0-0.604-0.235-0.989-0.709-1.161c-0.167-0.059-0.438-0.091-0.801-0.091h-2.931V59.664L44.064,59.664z M12.931,41.553l-1.311,3.131
		h2.613L12.931,41.553L12.931,41.553z M8,48.348l3.801-8.943h2.253l3.8,8.943H15.56l-0.884-2.073h-3.494l-0.888,2.073H8L8,48.348z
		 M44.467,43.355h3.126c0.524,0,0.893-0.064,1.112-0.197c0.332-0.201,0.499-0.547,0.499-1.035c0.001-0.547-0.25-0.896-0.751-1.05
		c-0.177-0.05-0.46-0.076-0.86-0.076h-3.126V43.355L44.467,43.355z"/>
</g>
</svg>
