<?xml version="1.0" encoding="utf-8"?>
<!-- Generator: Adobe Illustrator 16.0.0, SVG Export Plug-In . SVG Version: 6.00 Build 0)  -->
<!DOCTYPE svg PUBLIC "-//W3C//DTD SVG 1.1//EN" "http://www.w3.org/Graphics/SVG/1.1/DTD/svg11.dtd">
<svg version="1.1" id="Layer_1" xmlns="http://www.w3.org/2000/svg" xmlns:xlink="http://www.w3.org/1999/xlink" x="0px" y="0px"
	 width="96px" height="96px" viewBox="0 0 96 96" enable-background="new 0 0 96 96" xml:space="preserve">
<g>
	<g>
		<path fill="#C3C6C8" d="M0.073,73.881l2.092-0.186l0.403-0.482V52.861H0v-1.779l6.787-2.188h1.907v2.484
			c3.376-2.002,4.696-2.521,6.42-2.521c4.036,0,7.117,3.855,7.117,8.934c0,5.932-4.219,9.898-10.455,9.898
			c-0.733,0-1.907-0.074-3.082-0.186v5.709l0.477,0.482l2.422,0.186l-0.073,1.965H0.073V73.881z M8.694,65.391
			c0.477,0.074,0.697,0.074,0.991,0.074c3.778,0,5.796-2.371,5.796-6.82c0-3.781-1.65-5.783-4.695-5.783
			c-0.514,0-1.027,0.037-2.092,0.186V65.391z"/>
		<path fill="#C3C6C8" d="M30.46,48.969c0.294,1.334,0.44,2.336,0.478,3.15l0.402,9.047l5.356-10.232v-1.074l5.54-0.445L42.933,63.5
			l4.732-6.635l-1.027-6.82c0.991-0.891,1.688-1.188,2.825-1.188c1.797,0,3.008,1.15,3.008,2.893c0,1.816-0.99,3.967-3.448,7.414
			c-0.771,1.074-3.046,3.93-6.786,8.525h-4.33l-0.844-12.752l-6.86,12.752h-4.658l0.367-1.668l-0.587-13.42l-3.632-0.594v-1.482
			l6.64-1.557H30.46z"/>
		<path fill="#C3C6C8" d="M63.901,50.859c-3.118,0.482-4.732,2.818-4.732,6.857c0,4.078,2.165,6.785,5.393,6.785
			c1.542,0,2.935-0.482,5.797-1.891v3.299c-3.485,1.594-5.503,2.076-8.328,2.076c-3.045,0-5.172-0.816-6.933-2.596
			c-1.762-1.779-2.679-4.113-2.679-6.746c0-5.82,4.329-9.787,10.676-9.787c4.219,0,7.116,1.928,7.116,4.709
			c0,1.854-1.356,3.076-3.374,3.076c-1.027,0-1.871-0.26-2.936-0.889V50.859z"/>
	</g>
	<rect x="42.641" y="33.645" fill="none" stroke="#C3C6C8" stroke-miterlimit="10" width="17.946" height="4.783"/>
	<g>
		<rect x="60.587" y="2.154" fill="none" stroke="#C3C6C8" stroke-miterlimit="10" width="17.553" height="3.789"/>
		<rect x="78.14" y="5.943" fill="none" stroke="#C3C6C8" stroke-miterlimit="10" width="3.255" height="5.479"/>
		<rect x="60.587" y="5.943" fill="none" stroke="#C3C6C8" stroke-miterlimit="10" width="17.553" height="5.479"/>
		<rect x="81.395" y="11.422" fill="none" stroke="#C3C6C8" stroke-miterlimit="10" width="8.875" height="13.553"/>
		<rect x="78.14" y="11.422" fill="none" stroke="#C3C6C8" stroke-miterlimit="10" width="3.255" height="13.553"/>
		<polygon fill="none" stroke="#C3C6C8" stroke-miterlimit="10" points="71.434,24.975 78.14,24.975 78.14,11.422 60.587,11.422 
			60.587,20.49 71.434,20.49 		"/>
		<rect x="90.27" y="24.975" fill="none" stroke="#C3C6C8" stroke-miterlimit="10" width="4.73" height="8.67"/>
		<rect x="81.395" y="24.975" fill="none" stroke="#C3C6C8" stroke-miterlimit="10" width="8.875" height="8.67"/>
		<rect x="78.14" y="24.975" fill="none" stroke="#C3C6C8" stroke-miterlimit="10" width="3.255" height="8.67"/>
		<rect x="71.434" y="24.975" fill="none" stroke="#C3C6C8" stroke-miterlimit="10" width="6.706" height="8.67"/>
		<rect x="60.587" y="20.49" fill="none" stroke="#C3C6C8" stroke-miterlimit="10" width="10.847" height="4.484"/>
		<rect x="60.587" y="24.975" fill="none" stroke="#C3C6C8" stroke-miterlimit="10" width="10.847" height="8.67"/>
	</g>
</g>
</svg>
