<?xml version="1.0" encoding="utf-8"?>
<!-- Generator: Adobe Illustrator 16.0.0, SVG Export Plug-In . SVG Version: 6.00 Build 0)  -->
<!DOCTYPE svg PUBLIC "-//W3C//DTD SVG 1.1//EN" "http://www.w3.org/Graphics/SVG/1.1/DTD/svg11.dtd">
<svg version="1.1" id="Layer_1" xmlns="http://www.w3.org/2000/svg" xmlns:xlink="http://www.w3.org/1999/xlink" x="0px" y="0px"
	 width="96px" height="96px" viewBox="0 0 96 96" enable-background="new 0 0 96 96" xml:space="preserve">
<g>
	<path fill-rule="evenodd" clip-rule="evenodd" fill="#C3C6C8" d="M95.197,54.732c0.503-0.208,0.543-0.244,0.357-0.774
		c-1.062-3.03-5.058-4.666-8.461-3.247c-2.684,1.119-4.627,3.958-4.627,7.132c0,4.277,3.087,8.081,7.28,8.081
		c1.923,0,3.29-0.266,4.507-1.038c0.261-0.242,1.731-1.419,1.746-1.671c0.003-0.058-0.207,0.125-0.527,0.302
		c-0.947,0.499-2.368,0.69-3.482,0.71c-2.254,0.041-4.055-1.495-5.229-3.318c-0.755-1.174-1.244-2.516-1.365-3.957
		c-0.187-2.215,0.354-4.762,2.856-5.387c1.665-0.416,3.241,0.517,3.854,2.119c0.278,0.728,0.11,1.105-0.562,1.383l-6.018,2.514
		l2.051,0.132C90.021,56.698,92.755,55.747,95.197,54.732L95.197,54.732z"/>
	<path fill-rule="evenodd" clip-rule="evenodd" fill="#C3C6C8" d="M76.671,42.398c1.527,0,2.965,0,4.492,0
		c-0.625,0.405-0.835,0.572-1.104,0.998c-0.192,0.305-0.242,0.883-0.277,1.405c-0.262,5.999-0.102,12.043-0.14,18.043
		c0.024,1.635,0.667,1.442,2.794,1.381c-0.32,0.271-0.841,0.809-1.243,1.04c-1.919,0-3.75-0.041-5.668-0.041
		c0.723-0.746,1.093-1.228,1.043-3.094c0.038-6.27-0.209-12.286,0.172-18.324c-0.898,0.026-1.716,0.014-2.615,0.039
		C74.974,43.408,75.777,42.791,76.671,42.398L76.671,42.398z"/>
	<path fill-rule="evenodd" clip-rule="evenodd" fill="#C3C6C8" d="M68.549,66.292c0.324,0.236,0.66,0.467,1.007,0.686
		c1.888,1.195,2.489,2.657,2.336,4.006c-0.186,1.626-1.745,2.908-4.417,3.069c-2.853,0.174-6.693-0.955-5.981-4.708
		c0.378-1.999,3.03-3.03,5.224-3.104C67.324,66.221,67.942,66.271,68.549,66.292L68.549,66.292z M74.999,50.674l-1.921,1.244h-2.188
		c0.924,0.646,1.632,1.575,2.021,2.61c0.415,1.104,0.474,2.325,0.052,3.451c-0.398,1.062-1.206,1.976-2.393,2.671
		c-0.674,0.396-1.015,0.896-1.052,1.376c-0.11,1.401,1.603,2.42,2.592,3.161c2.167,1.621,3.013,4.282,1.579,6.853
		c-1.369,2.454-4.631,3.55-8.095,3.562c-4.303-0.02-7.017-1.99-7.16-4.674c-0.185-3.468,3.374-5.119,6.589-5.495
		c0.9-0.105,1.705-0.088,2.462-0.034c-1.139-0.75-1.563-2.276-0.983-3.295c0.151-0.267,0.056-0.175-0.23-0.131
		c-2.631,0.396-5.339-1.319-5.973-3.914c-0.322-1.316-0.122-2.691,0.38-3.77c1.089-2.338,3.51-3.638,6.196-3.638
		C69.671,50.651,72.259,50.652,74.999,50.674L74.999,50.674z M70.163,56.378c0.342,2.077-0.186,4.046-2.062,4.564
		c-1.922,0.532-4.047-0.963-4.73-3.64c-0.749-2.936,0.025-4.799,1.836-5.361C67.35,51.274,69.641,53.208,70.163,56.378
		L70.163,56.378z"/>
	<path fill-rule="evenodd" clip-rule="evenodd" fill="#C3C6C8" d="M50.562,50.24c5.155,0,7.845,3.428,8.086,7.443
		c0.238,4-3.06,7.579-7.097,8.008c-4.854,0.515-9.093-2.829-9.093-7.706C42.459,53.72,46.099,50.24,50.562,50.24L50.562,50.24z
		 M55.435,58.198c0.296,2.942-0.691,5.675-3.333,6.286c-2.701,0.625-5.564-1.616-6.28-5.424c-0.785-4.178,0.513-6.928,3.062-7.604
		C51.904,50.654,54.984,53.705,55.435,58.198L55.435,58.198z"/>
	<path fill-rule="evenodd" clip-rule="evenodd" fill="#C3C6C8" d="M32.891,50.24c5.217,0,7.938,3.428,8.182,7.443
		c0.241,4-3.096,7.579-7.181,8.008c-4.911,0.515-9.2-2.829-9.2-7.706C24.691,53.72,28.375,50.24,32.891,50.24L32.891,50.24z
		 M37.82,58.198c0.299,2.942-0.7,5.675-3.371,6.286c-2.734,0.625-5.632-1.616-6.355-5.424c-0.794-4.178,0.519-6.928,3.099-7.604
		C34.249,50.654,37.364,53.705,37.82,58.198L37.82,58.198z"/>
	<path fill-rule="evenodd" clip-rule="evenodd" fill="#C3C6C8" d="M19.928,48.095l2.345-2.392
		c-3.98-3.294-10.808-3.728-15.331-1.439c-3.935,1.989-6.796,5.94-6.936,10.354c-0.147,4.644,2.552,8.317,5.291,10.165
		c4.521,3.049,12.361,2.37,17.083-0.014l-0.001-0.442h0.001v-4.867l1.1-1.288H16.6l-2.548,1.435L19,59.459c0,1.386,0,2.903,0,4.29
		c0,0.608,0.008,0.706-0.995,1.03c-1.412,0.371-3.006,0.443-4.463,0.322c-4.94-0.412-8.707-4.316-9.599-9.187
		c-0.847-4.62,1.332-8.99,5.016-10.794c1.8-0.881,3.958-1.294,6.297-0.545c1.467,0.469,2.799,1.314,3.96,2.48l-0.809,1.47
		L19.928,48.095L19.928,48.095z"/>
</g>
</svg>
